<?xml version="1.0" standalone="no"?>
<!DOCTYPE svg PUBLIC "-//W3C//DTD SVG 20010904//EN"
 "http://www.w3.org/TR/2001/REC-SVG-20010904/DTD/svg10.dtd">
<svg version="1.0" xmlns="http://www.w3.org/2000/svg"
 width="501.000000pt" height="492.000000pt" viewBox="0 0 501.000000 492.000000"
 preserveAspectRatio="xMidYMid meet">

<g transform="translate(0.000000,492.000000) scale(0.100000,-0.100000)"
fill="#000000" stroke="none">
<path d="M1396 3605 c-3 -8 -8 -226 -12 -484 -6 -376 -5 -473 6 -486 9 -11 33
-15 99 -15 l86 0 -64 30 -64 31 7 427 c4 235 9 428 11 430 2 2 54 -13 114 -33
89 -29 111 -40 111 -55 0 -20 -45 -593 -58 -742 l-8 -88 161 2 c155 2 156 2
36 5 l-123 4 6 52 c3 29 13 138 21 242 8 105 17 226 21 270 3 44 7 115 8 158
2 42 6 80 9 84 12 11 367 -110 367 -125 0 -14 -58 -241 -92 -357 -22 -76 -88
-325 -88 -331 0 -2 262 -4 583 -4 l582 0 68 97 c63 91 66 98 46 105 -19 7 -13
18 77 150 53 79 108 155 123 169 41 39 127 53 264 45 205 -13 192 -14 195 11
4 30 -23 40 -150 55 -77 9 -118 9 -184 0 -137 -20 -155 -31 -229 -137 l-65
-93 -102 33 c-57 19 -350 116 -653 215 -302 100 -665 220 -805 266 -140 46
-264 84 -276 84 -12 0 -24 -7 -28 -15z m959 -355 c72 -23 133 -45 137 -49 3
-3 -38 -109 -93 -236 -55 -126 -107 -248 -116 -270 -9 -22 -20 -44 -25 -50 -4
-5 22 76 58 180 36 105 76 220 89 258 13 38 19 67 13 67 -6 0 -59 19 -119 43
-99 38 -109 44 -109 68 0 29 9 42 24 36 6 -2 70 -23 141 -47z m346 -114 c74
-24 146 -49 161 -54 l27 -11 -105 -178 c-58 -98 -110 -182 -115 -188 -11 -11
41 106 90 203 17 34 31 65 31 70 0 4 -57 32 -127 61 -71 29 -129 55 -131 56
-3 3 28 85 32 85 2 0 63 -20 137 -44z m391 -128 l128 -42 -17 -26 c-8 -14 -26
-39 -39 -57 l-24 -32 -122 41 c-68 22 -125 42 -127 44 -5 4 61 114 68 114 3 0
63 -19 133 -42z"/>
<path d="M1784 3378 c27 -15 138 -58 150 -58 6 1 -27 16 -74 35 -88 36 -108
42 -76 23z"/>
<path d="M1952 3298 c-31 -15 -39 -54 -17 -78 23 -25 36 -25 63 0 18 17 20 25
11 42 -9 16 -8 23 2 30 11 8 10 9 -3 4 -10 -3 -18 -1 -18 4 0 12 -9 12 -38 -2z
m42 -25 c7 -22 4 -39 -7 -35 -5 1 -6 -2 -3 -7 12 -19 -15 -23 -35 -5 -22 20
-24 35 -7 52 18 18 46 15 52 -5z"/>
<path d="M1945 3270 c-3 -5 -1 -18 5 -27 11 -17 11 -16 5 1 -3 11 0 23 7 28 9
5 10 8 1 8 -6 0 -15 -4 -18 -10z"/>
<path d="M2057 3260 c3 -11 7 -20 9 -20 2 0 4 9 4 20 0 11 -4 20 -9 20 -5 0
-7 -9 -4 -20z"/>
<path d="M1846 3231 c-12 -13 -15 -27 -10 -45 6 -27 10 -29 54 -30 27 -1 40
-21 13 -21 -9 0 -18 -6 -21 -14 -6 -18 38 -5 55 16 9 12 6 25 -15 64 -29 52
-49 60 -76 30z m63 -27 c12 -19 21 -36 21 -37 0 -1 -16 -3 -36 -4 -29 -1 -37
3 -47 24 -9 21 -8 27 8 39 27 20 31 18 54 -22z"/>
<path d="M1860 3215 c-10 -12 -10 -18 0 -30 7 -8 17 -15 23 -15 6 0 3 6 -8 13
-11 9 -15 19 -10 27 6 10 11 9 22 -5 7 -11 13 -14 13 -8 0 6 -6 16 -14 22 -10
9 -16 8 -26 -4z"/>
<path d="M2052 3199 c-1 -19 -11 -84 -22 -144 -21 -112 -23 -131 -16 -124 10
10 47 243 43 272 l-4 32 -1 -36z"/>
<path d="M1763 3175 c0 -8 4 -12 8 -10 4 3 14 -6 23 -20 11 -17 13 -26 4 -31
-7 -5 -8 -2 -3 7 5 8 5 11 0 7 -4 -4 -15 -2 -24 5 -14 11 -15 10 -1 -7 14 -18
13 -19 -5 -12 -15 5 -17 4 -8 -5 7 -7 22 -9 37 -5 44 11 31 86 -14 86 -9 0
-17 -7 -17 -15z m42 -6 c11 -17 -1 -21 -15 -4 -8 9 -8 15 -2 15 6 0 14 -5 17
-11z"/>
<path d="M1712 2405 c-37 -46 -29 -68 41 -119 30 -22 37 -33 35 -54 -3 -23 -8
-27 -33 -26 -16 0 -38 4 -49 9 -31 13 -14 -18 18 -33 36 -18 77 -4 95 32 18
37 4 67 -48 103 -63 44 -52 108 14 83 16 -6 27 -6 31 1 9 15 0 20 -44 26 -34
5 -42 2 -60 -22z"/>
<path d="M1930 2408 c-5 -13 -27 -69 -49 -125 -34 -88 -37 -103 -22 -103 9 0
21 13 28 30 10 27 15 30 56 30 41 0 46 -3 56 -30 6 -19 17 -30 29 -30 17 0 15
12 -26 125 -25 69 -49 125 -54 125 -5 0 -13 -10 -18 -22z m33 -93 l16 -45 -35
0 c-19 0 -34 2 -34 5 0 8 32 85 35 85 2 0 10 -20 18 -45z"/>
<path d="M2090 2300 l0 -120 60 0 c47 0 60 3 60 15 0 11 -12 15 -45 15 l-45 0
0 105 c0 87 -3 105 -15 105 -12 0 -15 -20 -15 -120z"/>
<path d="M2260 2300 l0 -120 60 0 c47 0 60 3 60 15 0 11 -12 15 -45 15 l-45 0
0 40 c0 39 1 40 34 40 21 0 36 6 40 15 4 12 -3 15 -35 15 l-40 0 3 38 c3 36 4
37 46 40 64 5 50 22 -18 22 l-60 0 0 -120z"/>
<path d="M2440 2300 c0 -110 2 -120 18 -120 16 0 18 7 14 55 l-4 55 66 0 66 0
0 -55 c0 -49 2 -55 21 -55 17 0 20 4 15 23 -3 12 -6 66 -6 120 0 79 -3 97 -15
97 -11 0 -15 -12 -15 -50 l0 -50 -65 0 -65 0 0 50 c0 38 -4 50 -15 50 -12 0
-15 -20 -15 -120z"/>
<path d="M2714 2398 c3 -13 6 -67 6 -120 0 -80 3 -98 15 -98 13 0 15 20 15
120 0 116 -1 120 -21 120 -17 0 -20 -4 -15 -22z"/>
<path d="M2824 2338 c18 -46 39 -101 47 -123 8 -22 19 -40 24 -40 5 0 31 55
56 123 40 102 44 122 31 122 -12 0 -25 -21 -41 -67 -46 -131 -39 -129 -75 -28
-25 72 -35 91 -52 93 -21 3 -21 1 10 -80z"/>
<path d="M3040 2300 l0 -120 60 0 c47 0 60 3 60 15 0 11 -12 15 -45 15 l-45 0
0 40 c0 39 1 40 34 40 21 0 36 6 40 15 4 12 -3 15 -35 15 l-40 0 3 38 c3 36 4
37 46 40 64 5 50 22 -18 22 l-60 0 0 -120z"/>
<path d="M1246 1950 c-50 -126 13 -243 150 -281 79 -22 121 -24 175 -8 115 35
188 182 148 298 -10 28 -15 31 -50 31 l-39 0 16 -25 c26 -40 22 -126 -7 -170
-32 -47 -40 -44 -22 8 17 48 12 111 -12 157 l-16 30 -163 0 -164 0 -16 -40z"/>
<path d="M1940 1924 c107 -35 201 -67 209 -69 11 -4 7 -11 -15 -24 -39 -24
-122 -114 -134 -146 -34 -90 17 -222 99 -254 62 -25 154 -41 189 -35 80 15
157 74 186 146 20 47 20 128 2 173 -8 19 -14 35 -13 35 1 0 27 -7 57 -15 73
-20 117 -18 165 4 86 40 129 125 106 209 -11 39 -14 42 -47 42 -31 0 -35 -3
-29 -17 41 -94 -16 -183 -117 -183 -28 0 -151 36 -347 100 l-304 100 -101 -1
-101 -1 195 -64z m417 -161 c75 -56 90 -164 32 -237 -28 -35 -33 -28 -14 17
30 73 11 151 -53 215 -34 35 -38 42 -20 37 13 -4 38 -18 55 -32z"/>
<path d="M2080 880 c0 -73 17 -98 22 -33 2 27 8 39 21 41 14 3 17 -4 17 -37 0
-23 5 -41 10 -41 12 0 13 70 1 89 -5 8 -16 11 -30 6 -18 -5 -21 -2 -21 19 0
14 -4 26 -10 26 -6 0 -10 -30 -10 -70z"/>
<path d="M2480 947 c-3 -3 -3 -34 0 -69 5 -68 22 -84 54 -53 30 31 14 85 -25
85 -10 0 -19 9 -21 21 -2 11 -5 19 -8 16z m48 -80 c4 -21 -16 -49 -29 -41 -5
3 -9 19 -9 35 0 24 4 30 17 27 10 -2 19 -11 21 -21z"/>
<path d="M2910 886 c0 -68 11 -83 51 -71 41 13 29 103 -12 92 -15 -4 -19 0
-19 19 0 13 -4 24 -10 24 -6 0 -10 -28 -10 -64z m58 -19 c4 -21 -16 -49 -29
-41 -5 3 -9 19 -9 35 0 24 4 30 17 27 10 -2 19 -11 21 -21z"/>
<path d="M3010 880 c0 -40 4 -70 10 -70 6 0 10 30 10 70 0 40 -4 70 -10 70 -6
0 -10 -30 -10 -70z"/>
<path d="M3500 880 c0 -40 4 -70 10 -70 6 0 10 30 10 70 0 40 -4 70 -10 70 -6
0 -10 -30 -10 -70z"/>
<path d="M3630 900 c0 -27 5 -50 10 -50 6 0 10 23 10 50 0 28 -4 50 -10 50 -5
0 -10 -22 -10 -50z"/>
<path d="M1160 870 c0 -56 2 -60 23 -60 39 0 48 13 43 61 -3 24 -5 47 -5 52
-1 4 -14 7 -31 7 l-30 0 0 -60z m45 30 c0 -7 -6 -15 -12 -17 -8 -3 -13 4 -13
17 0 13 5 20 13 18 6 -3 12 -11 12 -18z m5 -49 c0 -10 -7 -21 -15 -25 -11 -4
-15 1 -15 19 0 16 6 25 15 25 8 0 15 -9 15 -19z"/>
<path d="M2240 882 c0 -52 12 -72 45 -72 33 0 45 20 43 74 l-1 51 -4 -45 c-7
-84 -63 -88 -63 -4 0 24 -4 44 -10 44 -5 0 -10 -22 -10 -48z"/>
<path d="M3200 870 l0 -60 30 0 c33 0 70 30 70 58 0 34 -29 62 -66 62 l-34 0
0 -60z m70 29 c14 -26 6 -65 -16 -73 -26 -10 -34 2 -34 50 0 37 3 44 20 44 10
0 24 -9 30 -21z"/>
<path d="M2758 909 c-3 -8 -3 -32 1 -54 l6 -40 60 -1 61 0 -6 45 c-4 41 -8 46
-29 46 -13 0 -26 -5 -28 -12 -3 -7 3 -9 16 -6 15 4 21 1 21 -11 0 -9 -6 -16
-14 -16 -7 0 -19 -7 -26 -15 -7 -8 -21 -15 -31 -15 -25 0 -26 45 -1 59 15 9
15 10 0 11 -9 0 -18 5 -20 12 -3 8 -6 7 -10 -3z m102 -67 c0 -13 -12 -22 -22
-16 -10 6 -1 24 13 24 5 0 9 -4 9 -8z"/>
<path d="M1570 859 c0 -57 17 -66 22 -12 2 27 8 39 21 41 14 3 17 -4 17 -37 0
-23 5 -41 10 -41 15 0 12 77 -2 87 -7 4 -25 8 -40 9 -27 2 -28 0 -28 -47z"/>
<path d="M1686 895 c-15 -15 -15 -36 0 -82 2 -7 13 -13 24 -13 11 0 20 -5 20
-11 0 -8 -11 -9 -32 -5 -24 5 -29 3 -21 -5 6 -6 23 -9 39 -7 41 4 40 41 -1 48
l-30 6 26 7 c19 5 28 15 32 34 3 16 5 29 4 29 -16 12 -48 12 -61 -1z m38 -14
c7 -11 -3 -41 -14 -41 -11 0 -21 30 -14 41 3 5 9 9 14 9 5 0 11 -4 14 -9z"/>
<path d="M1815 888 c12 -44 28 -78 35 -78 4 0 12 15 17 33 l10 32 13 -32 c6
-18 15 -33 19 -33 8 0 43 91 37 97 -3 3 -12 -10 -22 -29 l-18 -33 -9 33 c-6
17 -13 32 -16 32 -4 0 -12 -15 -19 -32 l-13 -33 -14 33 c-16 37 -30 43 -20 10z"/>
<path d="M2019 906 c-3 -3 -3 -24 -1 -46 4 -43 24 -62 45 -41 8 8 7 11 -6 11
-12 0 -17 8 -17 30 0 17 5 30 13 30 8 0 7 4 -3 10 -17 11 -24 12 -31 6z"/>
<path d="M2370 859 c0 -27 5 -49 10 -49 6 0 10 18 10 41 0 33 3 40 18 37 11
-2 19 -16 23 -43 7 -38 7 -38 5 10 -1 49 -2 50 -33 52 -33 1 -33 1 -33 -48z"/>
<path d="M2582 898 c-17 -17 -15 -63 3 -78 12 -10 21 -10 38 -2 21 10 21 11
-5 11 -36 1 -39 31 -3 31 28 0 29 3 15 31 -12 22 -30 25 -48 7z m38 -18 c0 -5
-7 -10 -15 -10 -8 0 -15 5 -15 10 0 6 7 10 15 10 8 0 15 -4 15 -10z"/>
<path d="M2673 903 c-21 -8 -15 -23 8 -20 30 3 36 -21 7 -25 -15 -2 -23 -10
-23 -23 0 -15 7 -20 32 -22 31 -1 31 0 26 35 -8 64 -14 70 -50 55z m37 -62 c0
-5 -7 -11 -15 -15 -9 -3 -15 0 -15 9 0 8 7 15 15 15 8 0 15 -4 15 -9z"/>
<path d="M3072 898 c-17 -17 -15 -63 3 -78 12 -10 21 -10 38 -2 21 10 21 11
-5 11 -36 1 -39 31 -3 31 28 0 29 3 15 31 -12 22 -30 25 -48 7z m38 -19 c0 -5
-7 -9 -15 -9 -15 0 -20 12 -9 23 8 8 24 -1 24 -14z"/>
<path d="M3325 886 c-29 -44 4 -88 51 -69 16 6 15 8 -10 13 -41 7 -46 30 -7
30 27 0 30 2 22 23 -12 31 -37 33 -56 3z m40 -6 c3 -5 -3 -10 -15 -10 -12 0
-18 5 -15 10 3 6 10 10 15 10 5 0 12 -4 15 -10z"/>
<path d="M3423 903 c-21 -8 -15 -22 7 -16 14 4 20 0 20 -11 0 -9 -6 -16 -14
-16 -18 0 -36 -23 -28 -36 4 -6 21 -11 37 -11 30 0 31 1 25 46 -5 45 -18 57
-47 44z m27 -61 c0 -13 -12 -22 -22 -16 -10 6 -1 24 13 24 5 0 9 -4 9 -8z"/>
<path d="M3557 903 c-13 -13 -7 -38 13 -51 23 -14 18 -35 -5 -25 -8 3 -15 0
-15 -6 0 -16 35 -13 50 4 10 12 7 19 -14 38 -27 25 -26 40 2 30 10 -4 13 -2 8
5 -8 13 -29 16 -39 5z"/>
<path d="M1256 868 c9 -54 12 -57 44 -55 28 2 30 4 30 45 0 23 -4 42 -10 42
-5 0 -10 -16 -10 -35 0 -28 -4 -35 -20 -35 -16 0 -20 7 -20 35 0 19 -4 35 -10
35 -5 0 -7 -14 -4 -32z"/>
<path d="M1368 893 c27 -5 27 -7 1 -49 l-21 -34 39 1 c23 1 29 3 16 6 -28 5
-28 4 -2 47 l21 36 -39 -1 c-23 -1 -29 -3 -15 -6z"/>
<path d="M1448 893 c27 -5 27 -7 1 -49 l-21 -34 39 1 c23 1 29 3 16 6 -28 5
-28 11 -3 43 27 35 25 40 -17 39 -24 -1 -29 -3 -15 -6z"/>
<path d="M1520 855 c0 -25 5 -45 10 -45 6 0 10 20 10 45 0 25 -4 45 -10 45 -5
0 -10 -20 -10 -45z"/>
<path d="M1971 858 c-1 -27 3 -48 7 -48 4 0 6 17 4 38 -5 58 -10 62 -11 10z"/>
<path d="M3630 820 c0 -5 5 -10 10 -10 6 0 10 5 10 10 0 6 -4 10 -10 10 -5 0
-10 -4 -10 -10z"/>
</g>
</svg>
